<svg xmlns="http://www.w3.org/2000/svg" xmlns:xlink="http://www.w3.org/1999/xlink" width="200" zoomAndPan="magnify" viewBox="0 0 150 101.249998" height="135" preserveAspectRatio="xMidYMid meet" version="1.0"><defs><clipPath id="id1"><path d="M 0.550781 0 L 149.449219 0 L 149.449219 100.503906 L 0.550781 100.503906 Z M 0.550781 0 " clip-rule="nonzero"/></clipPath><clipPath id="id2"><path d="M 4 0 L 145 0 L 145 100.503906 L 4 100.503906 Z M 4 0 " clip-rule="nonzero"/></clipPath></defs><g clip-path="url(#id1)"><path fill="#ffffff" d="M 0.550781 0 L 149.449219 0 L 149.449219 208.457031 L 0.550781 208.457031 Z M 0.550781 0 " fill-opacity="1" fill-rule="nonzero"/><path fill="#ffffff" d="M 0.550781 0 L 149.449219 0 L 149.449219 100.503906 L 0.550781 100.503906 Z M 0.550781 0 " fill-opacity="1" fill-rule="nonzero"/><path fill="#ffffff" d="M 0.550781 0 L 149.449219 0 L 149.449219 100.503906 L 0.550781 100.503906 Z M 0.550781 0 " fill-opacity="1" fill-rule="nonzero"/><path fill="#ffffff" d="M 0.550781 0 L 149.449219 0 L 149.449219 100.503906 L 0.550781 100.503906 Z M 0.550781 0 " fill-opacity="1" fill-rule="nonzero"/></g><g clip-path="url(#id2)"><path fill="#9daaa8" d="M 114.601562 27.890625 C 112.691406 30.566406 112.484375 31.261719 111.582031 33.796875 C 128.957031 33.796875 144.113281 48.738281 144.113281 67.152344 C 144.113281 85.566406 129.199219 100.503906 110.820312 100.503906 C 92.441406 100.503906 77.527344 85.566406 77.527344 67.152344 C 77.527344 63.015625 77.734375 59.472656 78.535156 54.714844 C 79.746094 47.488281 82 40.433594 85.609375 33.796875 C 95.285156 15.941406 113.003906 3.953125 140.367188 0.480469 C 144.113281 -0.0078125 145.640625 5.136719 142.242188 6.769531 C 129.234375 13.160156 119.664062 20.804688 114.601562 27.890625 Z M 41.355469 27.890625 C 39.449219 30.566406 39.242188 31.261719 38.339844 33.796875 C 55.714844 33.796875 70.871094 48.738281 70.871094 67.152344 C 70.871094 85.566406 55.957031 100.503906 37.578125 100.503906 C 19.195312 100.503906 4.285156 85.566406 4.285156 67.152344 C 4.285156 63.015625 4.492188 59.472656 5.289062 54.714844 C 6.503906 47.488281 8.757812 40.433594 12.363281 33.796875 C 22.039062 15.941406 39.761719 3.953125 67.125 0.480469 C 70.871094 -0.0078125 72.394531 5.136719 68.996094 6.769531 C 55.992188 13.160156 46.421875 20.804688 41.355469 27.890625 Z M 41.355469 27.890625 " fill-opacity="1" fill-rule="nonzero"/></g></svg>