<svg xmlns="http://www.w3.org/2000/svg" xmlns:xlink="http://www.w3.org/1999/xlink" width="200" zoomAndPan="magnify" viewBox="0 0 150 101.249998" height="135" preserveAspectRatio="xMidYMid meet" version="1.0"><defs><clipPath id="id1"><path d="M 0.550781 0 L 149.449219 0 L 149.449219 100.503906 L 0.550781 100.503906 Z M 0.550781 0 " clip-rule="nonzero"/></clipPath><clipPath id="id2"><path d="M 5 0 L 146 0 L 146 100.503906 L 5 100.503906 Z M 5 0 " clip-rule="nonzero"/></clipPath></defs><g clip-path="url(#id1)"><path fill="#ffffff" d="M 0.550781 0 L 149.449219 0 L 149.449219 100.503906 L 0.550781 100.503906 Z M 0.550781 0 " fill-opacity="1" fill-rule="nonzero"/><path fill="#ffffff" d="M 0.550781 0 L 149.449219 0 L 149.449219 100.503906 L 0.550781 100.503906 Z M 0.550781 0 " fill-opacity="1" fill-rule="nonzero"/><path fill="#ffffff" d="M 0.550781 0 L 149.449219 0 L 149.449219 100.503906 L 0.550781 100.503906 Z M 0.550781 0 " fill-opacity="1" fill-rule="nonzero"/></g><g clip-path="url(#id2)"><path fill="#9daaa8" d="M 35.394531 27.890625 C 37.304688 30.566406 37.511719 31.261719 38.414062 33.796875 C 21.039062 33.796875 5.882812 48.738281 5.882812 67.152344 C 5.882812 85.566406 20.796875 100.503906 39.175781 100.503906 C 57.554688 100.503906 72.46875 85.566406 72.46875 67.152344 C 72.46875 63.015625 72.261719 59.472656 71.464844 54.714844 C 70.25 47.488281 67.996094 40.433594 64.386719 33.796875 C 54.710938 15.941406 36.992188 3.953125 9.628906 0.480469 C 5.882812 -0.0078125 4.359375 5.136719 7.757812 6.769531 C 20.761719 13.160156 30.332031 20.804688 35.394531 27.890625 Z M 108.640625 27.890625 C 110.546875 30.566406 110.753906 31.261719 111.65625 33.796875 C 94.28125 33.796875 79.128906 48.738281 79.128906 67.152344 C 79.128906 85.566406 94.039062 100.503906 112.417969 100.503906 C 130.800781 100.503906 145.710938 85.566406 145.710938 67.152344 C 145.710938 63.015625 145.503906 59.472656 144.707031 54.714844 C 143.492188 47.488281 141.238281 40.433594 137.632812 33.796875 C 127.957031 15.941406 110.234375 3.953125 82.871094 0.480469 C 79.128906 -0.0078125 77.601562 5.136719 81 6.769531 C 94.003906 13.160156 103.578125 20.804688 108.640625 27.890625 Z M 108.640625 27.890625 " fill-opacity="1" fill-rule="nonzero"/></g></svg>