<svg xmlns="http://www.w3.org/2000/svg" xmlns:xlink="http://www.w3.org/1999/xlink" width="500" zoomAndPan="magnify" viewBox="0 0 375 374.999991" height="500" preserveAspectRatio="xMidYMid meet" version="1.0"><rect x="-37.5" width="450" fill="#ffffff" y="-37.499999" height="449.999989" fill-opacity="1"/><rect x="-37.5" width="450" fill="#ffffff" y="-37.499999" height="449.999989" fill-opacity="1"/><rect x="-37.5" width="450" fill="#ffffff" y="-37.499999" height="449.999989" fill-opacity="1"/><rect x="-37.5" width="450" fill="#ffffff" y="-37.499999" height="449.999989" fill-opacity="1"/><path fill="#9daaa8" d="M 135.046875 80.664062 C 153.84375 58.191406 176.335938 40.023438 199.445312 22.167969 C 208.070312 15.394531 217.007812 30.480469 208.070312 36.945312 C 185.578125 53.878906 164.320312 72.351562 141.210938 88.671875 C 136.28125 92.671875 131.65625 84.976562 135.046875 80.664062 Z M 135.046875 80.664062 " fill-opacity="1" fill-rule="nonzero"/><path fill="#9daaa8" d="M 160.929688 128.386719 C 165.242188 124.078125 171.40625 122.230469 176.953125 120.074219 C 184.039062 117.609375 190.816406 115.457031 197.902344 112.992188 C 205.296875 110.53125 208.6875 122.535156 200.984375 124.691406 C 188.96875 127.769531 174.179688 134.851562 161.855469 132.390625 C 160.3125 132.390625 159.695312 129.617188 160.929688 128.386719 Z M 160.929688 128.386719 " fill-opacity="1" fill-rule="nonzero"/><path fill="#9daaa8" d="M 205.605469 185.960938 C 204.683594 185.960938 204.683594 184.730469 205.605469 184.730469 C 206.53125 184.730469 206.53125 185.960938 205.605469 185.960938 Z M 205.605469 185.960938 " fill-opacity="1" fill-rule="nonzero"/><path fill="#9daaa8" d="M 165.859375 183.191406 C 200.058594 179.496094 234.570312 178.878906 269.078125 177.648438 C 277.707031 177.339844 277.707031 190.886719 269.078125 191.195312 C 234.570312 192.425781 200.367188 193.964844 165.859375 192.425781 C 160.003906 192.117188 160.3125 183.804688 165.859375 183.191406 Z M 165.859375 183.191406 " fill-opacity="1" fill-rule="nonzero"/><path fill="#9daaa8" d="M 164.320312 239.222656 C 184.65625 241.996094 203.757812 248.769531 222.863281 256.464844 C 228.40625 258.621094 226.558594 266.933594 220.394531 265.703125 C 200.367188 261.390625 180.648438 256.15625 162.46875 246.613281 C 158.773438 245.074219 160.3125 238.609375 164.320312 239.222656 Z M 164.320312 239.222656 " fill-opacity="1" fill-rule="nonzero"/><path fill="#9daaa8" d="M 148.605469 294.335938 C 161.238281 301.109375 171.714844 313.421875 182.191406 323.277344 C 193.898438 334.050781 205.914062 344.519531 217.625 355.601562 C 224.402344 362.070312 214.542969 371.304688 207.457031 365.761719 C 194.824219 355.910156 183.113281 345.136719 171.714844 333.742188 C 161.855469 323.582031 149.21875 312.808594 143.058594 299.875 C 141.519531 296.183594 144.90625 292.488281 148.605469 294.335938 Z M 148.605469 294.335938 " fill-opacity="1" fill-rule="nonzero"/><path fill="#9daaa8" d="M 133.199219 372.84375 C 127.035156 368.226562 124.261719 359.605469 120.875 352.832031 C 117.175781 345.75 127.960938 339.59375 131.65625 346.675781 C 135.355469 353.757812 140.59375 361.453125 140.902344 369.765625 C 140.902344 374.078125 135.972656 375 133.199219 372.84375 Z M 133.199219 372.84375 " fill-opacity="1" fill-rule="nonzero"/><path fill="#9daaa8" d="M 98.378906 37.5625 C 101.769531 26.171875 107.316406 16.011719 112.863281 5.542969 C 115.328125 0 122.722656 4.617188 120.566406 9.851562 C 115.945312 20.320312 111.320312 30.789062 104.851562 40.023438 C 102.386719 43.101562 97.148438 41.5625 98.378906 37.5625 Z M 98.378906 37.5625 " fill-opacity="1" fill-rule="nonzero"/></svg>